<?xml version="1.0" standalone="no"?>
<!DOCTYPE svg PUBLIC "-//W3C//DTD SVG 20010904//EN"
 "http://www.w3.org/TR/2001/REC-SVG-20010904/DTD/svg10.dtd">
<svg version="1.0" xmlns="http://www.w3.org/2000/svg"
 width="1280.000000pt" height="1193.000000pt" viewBox="0 0 1280.000000 1193.000000"
 preserveAspectRatio="xMidYMid meet">
<metadata>
Created by potrace 1.15, written by Peter Selinger 2001-2017
</metadata>
<g transform="translate(0.000000,1193.000000) scale(0.100000,-0.100000)"
fill="#ffffff" stroke="none">
<path d="M5307 11920 c-259 -25 -521 -81 -802 -170 -140 -45 -226 -82 -350
-152 -353 -200 -624 -451 -791 -732 -303 -508 -228 -1119 215 -1757 195 -280
469 -470 830 -575 269 -78 463 -104 828 -111 346 -7 503 4 938 62 332 44 678
-13 941 -154 273 -148 445 -350 649 -766 157 -319 289 -676 520 -1395 31 -96
67 -192 80 -212 34 -51 69 -59 103 -24 l27 26 -1 473 c-1 438 -8 639 -35 987
-139 1803 -589 3128 -1308 3849 -346 347 -735 551 -1206 631 -136 24 -488 35
-638 20z"/>
<path d="M9945 11244 c-100 -15 -242 -50 -318 -80 -489 -188 -794 -695 -916
-1524 -47 -319 -54 -452 -57 -1130 -1 -355 -5 -702 -8 -771 -5 -110 -4 -128
10 -133 71 -27 89 6 206 364 141 432 242 639 408 835 161 189 367 315 626 380
92 24 189 36 414 55 504 40 889 339 1026 796 35 118 45 329 20 447 -99 478
-523 749 -1196 762 -102 2 -198 1 -215 -1z"/>
<path d="M11240 9343 c-642 -47 -1161 -339 -1625 -913 -83 -103 -274 -386
-347 -515 -264 -465 -494 -1068 -637 -1665 -72 -302 -74 -330 -26 -330 37 0
58 27 118 148 163 329 487 696 800 905 204 137 434 230 662 269 101 17 149 19
300 15 154 -4 206 -10 362 -41 591 -117 1031 -96 1392 66 143 64 305 195 397
323 162 223 206 557 113 848 -101 313 -348 590 -663 742 -243 118 -545 170
-846 148z"/>
<path d="M3460 6390 c0 -66 -79 -161 -172 -209 -94 -47 -187 -70 -355 -86
-240 -23 -388 -64 -522 -144 -152 -92 -237 -183 -311 -336 -50 -103 -93 -254
-105 -373 l-7 -63 -55 93 c-151 256 -322 414 -525 485 -149 53 -369 39 -667
-39 -263 -70 -337 -60 -730 100 -12 4 -13 -11 -8 -99 29 -473 339 -803 874
-928 198 -46 465 -64 621 -42 l52 7 0 -85 c0 -325 48 -776 116 -1081 240
-1083 844 -1959 1784 -2584 429 -286 852 -489 1380 -661 527 -172 1065 -274
1715 -327 212 -17 891 -17 1100 0 1138 93 2094 369 2800 808 389 242 728 562
949 894 278 418 416 865 416 1343 0 673 -264 1308 -755 1816 -549 569 -1294
898 -2180 962 -217 16 -595 6 -791 -20 -378 -51 -666 -137 -989 -296 -497
-244 -846 -551 -1501 -1315 -480 -562 -685 -765 -942 -936 -185 -124 -378
-206 -580 -249 -204 -42 -552 -35 -772 17 -489 114 -791 413 -905 893 -38 159
-48 285 -43 519 5 193 29 418 47 438 4 4 42 12 86 18 182 25 389 92 590 193
148 73 231 130 316 216 87 89 146 182 186 296 26 76 28 90 28 250 0 195 -16
276 -88 448 -40 95 -57 118 -57 77z"/>
</g>
</svg>
