<?xml version="1.0" standalone="no"?>
<!DOCTYPE svg PUBLIC "-//W3C//DTD SVG 20010904//EN"
 "http://www.w3.org/TR/2001/REC-SVG-20010904/DTD/svg10.dtd">
<svg version="1.0" xmlns="http://www.w3.org/2000/svg"
 width="1280.000000pt" height="1280.000000pt" viewBox="0 0 1280.000000 1280.000000"
 preserveAspectRatio="xMidYMid meet">
<metadata>
Created by potrace 1.15, written by Peter Selinger 2001-2017
</metadata>
<g transform="translate(0.000000,1280.000000) scale(0.100000,-0.100000)"
fill="#000000" stroke="none">
<path d="M2318 11832 c-49 -19 -88 -39 -88 -43 0 -4 68 -121 151 -260 l151
-254 -89 -81 -88 -82 0 -118 c0 -66 3 -131 7 -146 18 -61 135 -152 378 -293
303 -175 391 -285 665 -840 209 -424 300 -582 420 -729 l44 -55 -42 -5 c-155
-20 -480 -38 -607 -33 -203 7 -239 19 -374 121 -61 45 -302 221 -536 391
-1041 756 -1467 1100 -1619 1309 -24 32 -52 67 -62 77 -43 43 -119 6 -119 -58
0 -26 19 -48 123 -149 218 -212 452 -399 1002 -799 407 -296 527 -386 701
-525 162 -129 394 -331 394 -342 0 -4 -28 -8 -62 -8 -35 0 -90 -5 -123 -10
l-59 -10 -151 75 c-202 100 -358 194 -760 464 -187 125 -393 260 -458 300
-152 92 -382 221 -396 221 -32 0 -53 -155 -29 -225 12 -36 24 -47 124 -107
199 -119 472 -262 1101 -576 603 -301 681 -341 869 -451 l91 -53 7 -91 c3 -50
5 -91 3 -93 -1 -1 -72 17 -157 40 -143 40 -155 45 -155 67 0 37 -54 62 -144
66 -124 7 -178 -36 -188 -146 -5 -52 -8 -61 -22 -55 -36 16 -116 33 -174 39
-106 10 -104 9 -112 62 -4 27 -11 55 -15 63 -4 8 -11 36 -15 61 l-7 45 94 59
c51 33 138 88 192 123 l99 64 -94 41 c-52 23 -339 163 -639 312 -551 273 -749
365 -797 368 -37 3 -54 -36 -64 -138 -14 -152 5 -376 86 -1020 62 -497 78
-685 71 -835 -3 -69 -8 -142 -12 -162 -6 -35 -3 -39 72 -115 76 -77 77 -79 78
-130 1 -29 6 -57 11 -62 7 -7 327 -12 925 -17 503 -3 920 -7 927 -9 7 -2 13
-33 15 -79 l3 -76 -77 0 c-133 0 -178 -31 -178 -124 l0 -44 -42 5 c-35 4 -50
0 -81 -21 -34 -24 -42 -25 -84 -16 -36 8 -57 7 -100 -5 -30 -9 -57 -15 -58
-13 -2 2 -5 31 -6 65 -3 73 -13 62 173 190 70 49 128 91 128 96 0 4 -338 7
-750 7 -613 0 -752 -2 -756 -13 -2 -7 4 -195 15 -418 38 -757 42 -844 39
-1053 l-3 -209 -64 -22 c-103 -34 -108 -69 -15 -112 l56 -25 84 16 c135 27
374 99 633 191 133 47 349 123 482 170 235 83 534 175 571 175 17 0 18 -12 18
-160 0 -88 -2 -160 -4 -160 -3 0 -105 -32 -228 -71 -123 -39 -294 -93 -382
-121 -106 -33 -161 -47 -168 -40 -25 25 39 132 161 272 32 36 60 70 64 76 3 6
-42 -6 -101 -27 -59 -21 -268 -92 -466 -159 -197 -67 -390 -135 -430 -152 -39
-16 -154 -58 -256 -92 l-185 -63 4 -144 c2 -79 5 -146 7 -149 4 -3 158 44 220
67 8 3 14 -35 18 -119 17 -296 79 -859 136 -1227 14 -89 16 -128 9 -138 -6 -7
-66 -54 -133 -104 l-123 -91 -7 -317 c-4 -174 -15 -503 -25 -731 -10 -228 -16
-417 -15 -419 2 -2 33 11 69 28 180 84 483 315 1155 880 173 145 367 306 430
356 121 97 251 188 258 181 2 -2 0 -30 -3 -61 -6 -46 -13 -62 -39 -85 -17 -15
-435 -363 -929 -773 l-898 -745 -67 -4 c-86 -5 -141 -32 -166 -82 -16 -33 -17
-45 -7 -90 17 -78 140 -267 181 -278 33 -10 480 26 608 49 31 5 32 6 32 60 0
64 26 122 70 155 63 47 26 64 -114 54 -80 -6 -160 -16 -261 -31 l-30 -5 30 23
c36 27 214 180 396 341 171 151 284 242 331 267 46 24 48 24 48 -1 0 -33 -43
-109 -181 -320 -128 -197 -178 -285 -167 -295 2 -3 130 0 284 6 214 9 457 9
1047 -1 422 -7 832 -15 911 -19 l143 -6 -74 -174 c-40 -96 -71 -176 -69 -178
2 -2 133 -8 292 -14 337 -13 617 -7 1014 22 226 17 351 20 603 17 l318 -4 -5
46 c-15 132 -28 450 -23 569 8 161 15 208 33 215 80 31 1315 38 2734 17 448
-7 1014 -13 1257 -14 l443 -2 0 -282 0 -281 48 -42 c58 -50 185 -113 274 -134
189 -46 476 -46 686 -1 13 3 22 13 22 24 0 28 39 55 117 81 82 27 123 54 123
81 0 78 -421 352 -1031 673 l-127 66 -7 91 c-4 49 -6 92 -4 93 2 2 146 -85
319 -193 659 -412 1003 -612 1020 -595 5 5 14 158 19 339 14 430 26 1737 17
1795 l-7 46 -207 94 c-743 336 -932 416 -1081 457 l-64 17 7 81 c3 44 6 133 6
198 l0 117 89 0 89 0 -9 -40 c-18 -81 31 -110 189 -110 l108 0 87 -45 c88 -45
133 -55 154 -34 9 9 24 1 60 -29 99 -84 219 -120 260 -79 15 15 17 13 32 -15
22 -44 65 -56 202 -57 l117 -1 27 113 c99 416 115 554 91 782 -32 308 -39 538
-27 865 11 284 24 529 36 644 l4 48 -212 -6 c-757 -23 -1359 -80 -1812 -172
-66 -13 -130 -24 -142 -24 -35 0 -27 -14 21 -37 47 -23 116 -79 116 -94 0 -5
-46 -9 -102 -9 -107 0 -157 -14 -149 -41 9 -30 12 -186 4 -239 -8 -52 -10 -55
-43 -62 -19 -4 -98 -11 -175 -14 l-140 -7 -1 96 c-1 53 -10 132 -20 174 -10
43 -18 84 -17 91 0 6 -10 12 -24 12 -18 0 -23 -4 -19 -17 15 -52 17 -122 6
-224 -7 -63 -14 -116 -17 -119 -8 -8 -171 -13 -208 -6 l-35 7 0 89 c0 49 5
123 11 164 14 96 28 106 157 117 95 8 112 13 98 27 -12 11 -150 6 -199 -7 -38
-11 -51 -10 -93 4 -27 10 -83 20 -125 23 -68 4 -79 2 -98 -17 -11 -11 -21 -31
-21 -42 0 -19 -4 -21 -31 -15 -17 3 -78 6 -135 6 -102 0 -104 1 -104 23 0 12
-7 33 -16 45 -14 21 -22 22 -137 22 -104 0 -127 -3 -154 -20 -28 -17 -33 -25
-33 -60 0 -22 5 -40 10 -40 6 0 10 13 10 30 0 42 36 63 108 64 75 0 178 -14
164 -23 -8 -4 -8 -27 -2 -76 14 -107 29 -309 23 -315 -8 -8 -257 0 -265 8 -7
7 -50 194 -63 275 l-6 37 -51 0 c-27 0 -90 -7 -139 -16 -83 -15 -92 -15 -133
0 -38 15 -60 16 -147 8 -112 -10 -134 -8 -164 18 -42 37 -70 44 -185 46 -63 2
-131 8 -150 13 -42 13 -180 14 -199 2 -9 -6 9 -11 55 -16 132 -13 127 -10 140
-101 6 -43 14 -118 18 -166 l6 -88 -104 0 -104 0 -6 48 c-3 26 -8 85 -11 132
-3 47 -8 106 -11 131 l-5 46 -96 6 c-53 4 -98 8 -100 10 -2 2 3 34 11 70 7 37
11 69 7 73 -3 4 38 3 93 0 405 -29 1751 -44 2456 -28 358 9 441 13 605 36 694
96 1672 196 1916 196 60 0 109 2 109 5 0 2 7 52 16 111 12 83 13 120 5 172
-36 229 -48 758 -23 981 7 57 11 106 9 107 -1 2 -142 -28 -312 -66 -297 -65
-503 -112 -1280 -289 -192 -43 -416 -94 -497 -112 -82 -18 -148 -36 -148 -40
0 -4 19 -10 43 -14 128 -19 222 -36 226 -41 10 -10 -24 -24 -58 -24 -29 0 -33
-3 -29 -22 4 -23 3 -23 -108 -23 -80 0 -117 -4 -126 -13 -18 -18 -15 -219 6
-431 18 -186 20 -298 7 -334 -13 -32 -52 -44 -171 -52 -90 -6 -404 8 -462 21
l-27 6 2 277 c1 251 0 285 -20 375 -12 54 -27 104 -33 110 -15 15 -214 21
-248 7 -40 -16 -172 -33 -205 -25 -21 4 -27 11 -25 27 3 21 -1 22 -100 25 -58
1 -129 -3 -160 -10 -31 -7 -92 -11 -135 -10 -43 1 -86 -2 -95 -7 -14 -9 -12
-11 13 -11 76 -2 142 -7 151 -12 5 -4 6 -75 2 -180 -7 -173 3 -381 22 -448 5
-20 17 -45 26 -55 14 -18 15 -5 10 165 -4 102 -11 263 -17 358 -6 95 -9 175
-7 178 3 2 55 7 115 11 110 6 111 6 127 -19 35 -54 40 -91 40 -353 1 -225 4
-268 20 -323 10 -34 17 -64 15 -65 -7 -5 -418 11 -470 18 -45 6 -49 9 -54 38
-3 18 -9 181 -15 363 -5 182 -12 338 -15 347 -4 8 -14 19 -23 24 -9 4 -167 8
-350 8 -280 0 -332 -2 -330 -14 2 -11 36 -14 178 -15 l175 -1 3 -64 c2 -34 -4
-156 -12 -271 -20 -263 -21 -370 -2 -396 31 -41 38 24 40 361 2 230 6 326 14
343 12 21 18 22 147 22 l134 0 5 -42 c3 -24 7 -195 10 -381 l6 -339 -153 6
c-83 3 -241 9 -349 12 l-196 6 -7 82 c-3 44 -1 137 5 206 6 69 14 191 17 272
5 129 4 148 -10 154 -9 3 -80 7 -159 7 -133 2 -143 1 -146 -17 -4 -18 1 -19
78 -13 44 4 102 4 127 0 39 -5 47 -11 58 -37 24 -57 27 -157 10 -339 -8 -98
-13 -193 -10 -212 3 -19 7 -50 10 -69 l5 -33 -84 -7 c-47 -3 -108 -11 -137
-17 -29 -6 -55 -7 -60 -2 -5 5 -4 89 2 193 12 201 6 473 -11 532 -6 20 -17 39
-26 42 -9 3 -60 9 -114 12 l-98 7 -6 36 c-3 20 -6 55 -6 77 l0 42 138 7 c214
12 1014 10 1842 -5 415 -7 800 -11 855 -8 124 6 419 71 1080 238 672 170 1009
245 1306 291 111 17 138 37 139 100 0 50 -27 73 -79 66 -38 -5 -41 -3 -51 29
-8 23 -10 166 -8 461 3 461 1 480 -45 470 -12 -2 -137 -41 -277 -86 -366 -118
-714 -217 -1852 -529 -32 -9 -58 -19 -58 -23 0 -17 293 -129 336 -129 9 0 12
-4 9 -10 -3 -5 -16 -10 -29 -10 -12 0 -43 -7 -68 -15 -108 -37 -131 -190 -77
-512 12 -72 19 -138 16 -146 -3 -8 -36 -22 -74 -31 -80 -21 -335 -42 -387 -32
l-36 7 0 323 c0 299 -1 324 -17 331 -10 5 -61 11 -113 15 -52 4 -131 15 -175
25 -61 13 -87 14 -107 6 -16 -6 -28 -15 -28 -21 0 -6 9 -6 25 0 25 10 61 5
159 -21 l39 -11 -7 -256 c-3 -141 -9 -287 -13 -324 l-6 -68 -102 0 -103 0 -6
33 c-3 17 -9 177 -13 354 -5 303 -7 323 -25 340 -16 14 -44 19 -142 24 -66 3
-133 10 -148 16 -14 7 -64 15 -110 18 -76 6 -87 5 -129 -18 -40 -22 -53 -24
-85 -16 -56 13 -227 23 -258 15 -15 -4 -26 -13 -26 -24 0 -15 16 -17 156 -19
86 -1 159 -4 162 -7 3 -3 0 -72 -7 -153 -7 -82 -15 -238 -18 -348 l-6 -200
-126 8 c-69 5 -193 14 -276 20 l-150 12 -5 380 -5 380 84 2 c117 3 121 0 121
-95 0 -179 40 -655 55 -671 15 -14 14 35 -5 295 -12 159 -20 331 -18 382 3 91
2 94 -22 108 -19 11 -47 13 -115 8 -49 -3 -140 -1 -202 5 -61 6 -130 8 -153 5
-71 -11 -24 -24 91 -24 155 0 144 21 142 -272 0 -134 -5 -301 -10 -372 l-8
-129 -86 2 c-123 3 -140 9 -156 56 -23 64 -26 207 -9 353 9 74 16 180 16 236
0 140 -1 141 -146 127 -87 -8 -125 -7 -198 6 -57 10 -108 13 -140 8 -69 -10
-111 -10 -179 -1 -58 8 -58 8 -55 39 l3 32 295 8 c497 14 2317 14 2457 0 l122
-12 193 50 c315 82 682 189 1453 424 204 62 436 132 518 156 134 40 147 46
147 67 0 24 -33 97 -49 106 -5 3 -34 -4 -65 -15 -31 -12 -59 -20 -62 -17 -23
23 -29 730 -7 802 7 24 19 33 58 45 91 29 115 103 79 246 -14 55 -23 70 -60
100 l-44 36 -403 -134 c-221 -75 -690 -233 -1041 -351 -351 -119 -641 -215
-643 -212 -7 6 75 36 1127 409 747 265 891 319 887 330 -1 5 -14 16 -29 24
-25 16 -36 12 -309 -85 -156 -55 -565 -200 -909 -322 -344 -122 -674 -239
-733 -261 l-109 -39 -219 0 c-215 0 -219 0 -209 19 18 35 231 242 370 362 74
63 268 224 430 356 497 406 671 578 759 751 l22 43 -35 14 c-19 8 -94 19 -167
25 -121 9 -171 8 -239 -6 -13 -3 -66 -46 -117 -96 l-92 -91 -55 50 c-95 84
-217 132 -416 163 -41 6 -140 27 -220 45 -489 115 -1459 220 -2360 255 -226 9
-440 8 -1205 -9 -942 -21 -1076 -26 -1515 -62 -1057 -85 -1700 -199 -1832
-326 -15 -15 -29 -25 -31 -22 -2 2 -62 113 -132 247 -90 170 -132 242 -144
241 -9 0 -55 -17 -103 -37z m5307 -116 c885 -62 1651 -184 2200 -351 344 -104
476 -200 510 -371 5 -28 0 -36 -61 -94 -376 -351 -1286 -546 -2839 -610 -137
-5 -405 -17 -595 -25 -379 -16 -900 -19 -1080 -5 -63 5 -257 14 -430 19 -870
29 -1406 103 -1993 277 -66 19 -201 54 -300 79 -334 80 -436 131 -496 248 -92
178 -1 316 289 439 115 49 209 76 525 152 668 160 1210 224 2195 260 47 2 481
2 965 1 693 -2 929 -6 1110 -19z m2004 -1363 c-63 -65 -161 -171 -218 -235
-96 -111 -147 -155 -216 -190 -22 -11 -96 -18 -285 -27 -140 -6 -311 -14 -380
-17 -118 -5 -358 8 -394 22 -9 3 -16 9 -16 13 0 11 92 155 105 163 5 4 31 8
56 8 53 0 201 29 334 65 50 13 225 54 389 90 306 68 513 129 646 189 41 19 79
34 84 35 6 1 -42 -52 -105 -116z m-6258 -23 c307 -66 1208 -257 1302 -277 54
-11 92 -24 97 -33 5 -8 64 -173 133 -365 69 -193 159 -444 201 -559 42 -115
75 -210 74 -212 -2 -1 -93 -5 -203 -9 -310 -11 -885 16 -960 45 -13 5 -26 24
-34 50 -47 158 -401 762 -805 1373 -15 21 -15 27 -4 27 8 0 97 -18 199 -40z
m8523 -262 c18 -297 15 -508 -10 -728 l-6 -58 -82 -30 c-44 -17 -112 -42 -149
-56 -66 -26 -68 -26 -62 -6 14 44 22 387 13 619 -7 216 -6 247 8 269 28 42
133 79 236 81 l46 1 6 -92z m-3865 -40 c0 -7 -12 -38 -27 -68 l-28 -55 -184 1
c-102 1 -286 6 -410 12 -241 11 -435 3 -492 -21 -49 -21 -85 -69 -99 -134 -17
-76 -15 -258 4 -408 24 -184 30 -277 22 -359 l-7 -75 -51 -5 c-29 -3 -127 -8
-219 -11 l-168 -6 0 93 c0 228 34 790 56 930 l7 38 126 0 c69 0 234 11 366 25
162 17 355 29 595 36 195 5 356 12 359 14 2 3 37 5 78 5 52 0 73 -4 72 -12z
m-2429 -28 c741 -43 691 -39 685 -64 -15 -65 -37 -495 -48 -941 l-2 -90 -235
-7 c-129 -4 -347 -7 -485 -5 l-250 2 -13 60 c-8 33 -64 288 -126 568 l-112
507 40 0 c23 0 268 -13 546 -30z m5942 -474 l3 -368 -92 -34 -93 -33 0 137 c0
75 -5 253 -11 395 -10 232 -10 259 5 282 23 34 52 52 116 68 l55 14 7 -46 c4
-25 9 -212 10 -415z m-255 274 c21 -150 33 -339 33 -536 l0 -193 -82 -31 c-46
-17 -98 -40 -115 -50 l-33 -19 0 203 c0 180 -22 563 -36 607 -9 30 131 110
186 106 l35 -2 12 -85z m-307 18 c0 -7 9 -87 20 -178 28 -236 46 -566 34 -625
l-9 -47 -85 -35 c-79 -33 -211 -76 -216 -70 -7 7 -34 200 -44 312 -19 238 -40
469 -46 521 -6 44 -3 54 17 77 37 42 90 56 217 57 83 0 112 -3 112 -12z
m-1059 -48 c171 -34 324 -80 412 -124 45 -22 81 -45 80 -51 -1 -9 -21 -16
-175 -60 l-58 -16 0 -67 c0 -37 9 -146 20 -242 29 -249 37 -432 19 -446 -19
-15 -364 -79 -412 -76 -21 1 -56 6 -77 12 l-39 10 -3 405 c-3 345 -5 407 -18
419 -26 26 -172 32 -265 11 -51 -11 -127 -18 -216 -19 -75 0 -140 -4 -144 -8
-4 -3 -8 -21 -9 -40 -2 -18 -4 -35 -5 -38 0 -3 -35 -5 -76 -5 -41 0 -75 2 -76
5 0 3 3 13 7 23 17 45 2 46 -601 39 -132 -1 -265 1 -296 4 -45 5 -63 2 -97
-15 l-42 -21 -6 39 c-6 38 -8 40 -51 47 -52 8 -240 0 -265 -11 -13 -5 -18 -3
-18 9 0 25 -42 29 -203 22 l-150 -7 6 30 c4 18 1 33 -7 40 -12 10 -159 8 -195
-4 -16 -5 -21 3 -31 45 -7 30 -9 55 -3 61 8 8 310 15 1593 38 234 4 621 9 861
9 403 2 445 0 540 -18z m-2801 -175 c14 -9 13 -533 -1 -706 -6 -74 -16 -140
-22 -147 -7 -9 -32 -12 -81 -10 l-71 3 -3 429 c-2 337 1 432 10 438 14 10 150
4 168 -7z m3469 -47 c27 -72 59 -502 46 -631 -7 -79 -7 -79 -43 -94 -40 -17
-272 -76 -277 -71 -16 15 -45 422 -45 613 l1 120 122 42 c144 49 184 53 196
21z m-3144 2 l43 0 6 -227 c3 -126 9 -303 12 -395 l6 -168 -84 0 -83 0 -1 401
-1 401 30 -6 c16 -3 49 -6 72 -6z m-151 -35 c6 -18 8 -123 6 -255 -5 -399 -5
-424 2 -462 7 -41 8 -41 -102 -51 l-45 -4 3 391 c3 255 8 396 15 404 6 8 28
12 60 10 46 -3 52 -6 61 -33z m407 -12 l106 -6 13 -81 c7 -45 15 -208 17 -363
5 -267 4 -282 -13 -291 -11 -6 -75 -12 -144 -13 l-124 -3 -13 44 c-10 34 -13
119 -11 350 2 168 -1 323 -5 344 l-8 39 38 -7 c21 -3 86 -9 144 -13z m1912 5
c37 -29 45 -308 20 -682 l-6 -99 -116 6 c-64 3 -123 9 -132 12 -14 5 -17 44
-23 288 -7 294 -1 451 18 466 25 21 214 27 239 9z m-1053 -35 c3 -2 8 -145 11
-316 4 -186 11 -326 18 -347 20 -63 24 -61 -131 -58 l-143 3 -7 45 c-3 25 -11
140 -18 255 -6 116 -15 248 -20 295 l-8 85 3 -110 c3 -60 6 -211 7 -335 l3
-225 -92 -3 -93 -3 -2 153 c-4 240 3 531 14 552 8 15 17 17 56 11 26 -4 62
-13 80 -20 29 -13 32 -12 32 4 0 10 2 20 4 22 6 6 280 -2 286 -8z m257 1 c21
-6 22 -8 17 -143 -3 -75 -6 -237 -7 -361 l-2 -225 -96 -3 c-85 -2 -98 -1 -104
15 -4 10 -11 155 -15 323 -5 168 -12 326 -16 353 l-7 47 104 0 c57 0 114 -3
126 -6z m487 -46 c3 -29 8 -193 11 -365 l6 -312 -38 -7 c-21 -4 -79 -8 -130
-8 -127 -1 -128 0 -126 152 1 112 19 309 46 492 l12 85 60 6 c33 3 81 6 107 7
l47 2 5 -52z m-1250 22 c8 -8 11 -123 12 -361 0 -311 -1 -349 -15 -349 -9 0
-53 5 -98 11 l-82 12 -5 41 c-3 23 -7 179 -9 347 l-4 306 56 2 c30 1 57 4 60
7 9 9 73 -4 85 -16z m963 -44 c2 -2 -1 -32 -7 -67 -6 -35 -15 -183 -21 -329
-6 -146 -12 -266 -14 -268 -5 -5 -90 9 -102 16 -7 5 -8 51 -2 142 4 74 8 217
8 318 1 117 5 181 11 177 5 -3 22 1 37 10 24 13 78 14 90 1z m2819 -583 c16
-36 16 -356 0 -532 -9 -95 -19 -177 -22 -182 -14 -23 -74 -42 -147 -47 -67 -4
-79 -3 -71 9 5 8 11 170 14 360 5 377 4 369 65 395 16 7 58 13 91 14 50 0 63
-4 70 -17z m-7881 -3 c209 -5 679 -20 1045 -31 735 -24 1674 -30 1753 -12 l47
10 0 -271 c0 -149 -3 -328 -7 -398 l-6 -128 -40 0 -40 0 7 98 c15 245 17 467
4 492 -18 33 -64 37 -122 11 -44 -19 -45 -19 -83 0 -20 10 -52 19 -70 19 -46
0 -103 -25 -103 -46 0 -17 0 -17 120 1 38 6 48 4 63 -13 17 -18 18 -41 15
-295 -2 -152 -6 -278 -10 -282 -9 -9 -177 -29 -184 -22 -3 3 -7 126 -9 274 -1
147 -6 281 -10 297 -10 36 -56 56 -127 56 -64 0 -102 -18 -106 -48 -2 -12 -6
-20 -10 -18 -16 9 -197 -15 -219 -29 -23 -15 -23 -15 -17 9 5 22 2 27 -22 36
-15 6 -62 10 -103 8 l-76 -3 -6 43 c-3 24 -12 47 -19 52 -27 17 -97 21 -136 8
-31 -10 -41 -20 -50 -48 -7 -19 -11 -36 -10 -38 2 -1 17 5 35 14 35 17 134 16
150 -2 4 -5 6 -138 3 -296 l-4 -288 -98 0 -97 0 -5 310 -4 311 -27 27 c-24 24
-35 27 -95 27 -48 0 -76 -5 -95 -18 -24 -16 -27 -24 -27 -74 0 -54 13 -65 22
-18 2 16 12 21 48 23 25 1 65 -1 90 -6 44 -7 45 -9 58 -57 10 -38 11 -90 6
-210 -9 -192 -9 -195 -4 -265 l4 -55 -111 -3 -111 -3 -6 93 c-21 334 -26 420
-26 489 0 76 -1 79 -27 93 -46 23 -88 28 -137 15 -59 -15 -78 -42 -74 -101 4
-42 4 -42 15 -16 18 41 75 51 156 28 40 -11 46 -16 51 -45 4 -19 6 -149 4
-290 l-2 -256 -40 6 c-23 4 -79 9 -126 13 l-85 7 -7 290 c-6 244 -9 291 -22
301 -21 15 -442 29 -476 15 -19 -7 1 -10 82 -10 l106 -1 7 -39 c3 -22 5 -145
3 -274 -3 -219 1 -262 20 -243 8 9 8 308 -2 427 -3 46 -2 90 2 97 10 15 236
30 244 16 3 -5 9 -138 13 -296 l7 -288 -230 0 -229 0 -7 73 c-4 39 -14 114
-22 165 -8 51 -18 154 -23 228 -5 75 -13 140 -19 146 -5 5 -65 12 -133 14 -68
2 -152 10 -185 16 -51 9 -69 9 -100 -3 l-39 -15 2 -199 c2 -226 -4 -238 -15
-30 l-7 140 -90 -3 c-49 -2 -94 -7 -98 -11 -4 -5 -12 -131 -17 -282 -5 -151
-9 -275 -10 -276 0 -2 -50 -3 -111 -3 l-112 0 8 317 c8 365 9 368 79 378 87
13 82 25 90 -238 11 -357 23 -388 25 -62 l1 280 25 -30 c13 -16 24 -27 25 -23
0 10 -43 82 -55 90 -17 13 -150 9 -163 -4 -9 -9 -23 -6 -59 13 -41 20 -62 24
-141 24 -71 0 -95 -3 -102 -15 -6 -9 -8 -77 -5 -170 3 -85 7 -243 10 -351 l6
-197 -50 -3 c-43 -4 -51 -1 -55 16 -9 33 -7 200 5 381 7 94 9 182 6 195 -7 25
-145 107 -315 187 -97 45 -97 46 68 62 207 21 613 24 1155 10z m-2739 -101
c17 -19 19 -54 25 -647 7 -555 14 -724 35 -825 15 -70 -51 -74 -203 -12 -40
16 -42 18 -35 48 8 37 9 415 2 1004 -4 304 -2 415 7 423 14 15 65 28 114 29
25 1 42 -6 55 -20z m2096 -39 c21 -6 43 -21 50 -33 10 -16 14 -111 16 -356 l3
-334 -107 6 c-59 4 -109 9 -111 11 -2 2 -5 161 -6 352 l-2 349 40 6 c63 10 78
10 117 -1z m8231 1 c21 -8 25 -18 30 -68 3 -32 0 -176 -6 -320 l-11 -263 -27
0 c-26 0 -231 -50 -273 -66 -19 -7 -19 -2 -12 147 3 85 13 204 21 264 8 61 14
143 15 182 0 66 2 74 25 89 58 38 182 56 238 35z m-9983 -20 c20 -6 45 -17 55
-25 19 -14 20 -33 23 -709 l3 -695 -68 -6 c-75 -7 -219 6 -235 22 -6 6 -5 228
3 633 8 417 9 653 3 713 l-10 89 95 -6 c53 -3 112 -11 131 -16z m246 -63 c73
-13 72 -11 98 -163 49 -276 76 -1071 41 -1199 l-8 -28 -86 6 c-47 4 -105 9
-127 12 l-42 6 -7 456 c-4 252 -5 556 -2 677 7 268 1 258 133 233z m2235 -5
c13 -13 12 -232 -1 -373 -5 -58 -9 -135 -10 -172 l0 -67 -53 -6 c-73 -9 -113
-4 -108 15 2 8 7 148 11 310 4 162 8 296 9 297 9 14 137 11 152 -4z m193 -170
c3 -98 9 -233 12 -300 l7 -123 -54 0 -54 0 -4 300 -3 300 44 0 45 0 7 -177z
m2457 148 c22 -18 24 -26 23 -108 0 -48 -7 -135 -14 -193 -7 -58 -14 -144 -14
-192 l-1 -86 -45 -7 c-25 -3 -53 -8 -62 -11 -17 -5 -18 9 -17 213 1 120 4 252
8 293 6 73 7 75 41 92 44 23 52 22 81 -1z m-406 -25 c27 -20 31 -132 11 -293
-27 -211 -28 -221 -21 -253 4 -20 13 -30 25 -30 10 0 22 -4 25 -10 4 -6 -33
-10 -104 -10 l-111 0 0 158 c1 149 12 323 26 397 4 25 13 37 33 44 39 14 95
13 116 -3z m-470 -218 c0 -221 11 -349 27 -308 6 14 8 111 6 225 l-3 200 65 6
c36 4 89 7 118 8 l52 1 0 -255 0 -255 -32 1 c-18 0 -118 6 -223 12 l-190 12 4
35 c1 19 3 139 2 267 -1 265 -11 240 104 242 l70 1 0 -192z m-1991 105 c3 -42
6 -161 6 -264 0 -217 8 -203 -105 -197 l-60 3 -3 228 c-1 138 2 244 8 268 l11
39 68 0 68 0 7 -77z m7401 36 c11 -12 10 -330 -2 -443 l-8 -68 -120 -44 c-66
-24 -123 -44 -127 -44 -5 0 -8 123 -8 274 l0 275 30 21 c52 37 101 50 165 45
32 -3 64 -10 70 -16z m-8742 -39 l40 -41 -7 -487 c-3 -268 -9 -533 -13 -589
l-6 -103 -108 0 -108 0 -7 48 c-6 41 4 485 23 1024 7 199 0 185 92 187 50 1
56 -2 94 -39z m4875 20 c18 -7 37 -21 43 -32 7 -13 10 -93 8 -221 -2 -111 -3
-264 -4 -339 l0 -138 -126 0 -126 0 -9 213 c-5 116 -9 282 -9 367 l0 154 25 8
c33 10 157 2 198 -12z m3562 10 c13 -8 16 -56 18 -304 l4 -295 -39 -10 c-245
-64 -240 -64 -247 -8 -12 91 -27 489 -20 533 7 51 15 56 119 79 72 16 144 18
165 5z m-3832 -15 c23 -8 12 -588 -14 -691 -5 -20 -13 -23 -70 -26 l-64 -3 0
170 c0 153 17 523 25 551 3 10 89 9 123 -1z m526 -5 c32 -12 33 -33 10 -287
-10 -107 -14 -229 -11 -304 l5 -127 -64 -7 c-35 -4 -77 -4 -94 0 l-30 7 0 353
0 353 53 10 c71 13 101 14 131 2z m1200 -51 c3 -2 8 -173 12 -378 l7 -374
-142 6 c-78 3 -146 8 -149 12 -4 4 -8 74 -10 155 -4 170 21 475 44 528 26 63
29 65 136 60 53 -2 99 -6 102 -9z m1785 -41 c-12 -65 -11 -154 7 -328 8 -87
14 -175 12 -196 l-3 -37 -75 -18 c-113 -27 -120 -26 -121 19 -4 245 -19 484
-32 525 -15 47 -15 47 8 47 12 0 38 7 56 15 19 8 62 14 95 15 l61 0 -8 -42z
m-7936 17 c63 -16 147 -56 165 -77 24 -29 36 -428 23 -768 -7 -173 -15 -318
-19 -322 -4 -4 -67 -2 -140 4 l-133 11 6 46 c14 108 25 451 25 774 0 191 4
347 8 347 4 0 34 -7 65 -15z m6420 -19 l34 -14 6 -323 c3 -178 8 -334 12 -345
6 -18 2 -22 -27 -28 -18 -3 -71 -6 -117 -7 -72 -1 -87 2 -98 17 -11 15 -13 78
-12 304 1 161 -3 307 -9 335 -11 55 -5 71 31 79 37 8 144 -2 180 -18z m1271
-81 c14 -54 19 -118 23 -285 2 -118 0 -220 -4 -225 -6 -9 -194 -57 -200 -51
-1 0 -6 36 -12 80 -6 43 -25 126 -42 185 -42 141 -48 232 -21 295 27 61 61 76
162 73 l75 -2 19 -70z m-8191 4 l77 -11 1 -252 c1 -138 4 -374 8 -524 l6 -272
-116 0 -117 0 -6 123 c-12 266 -36 884 -36 921 l0 39 53 -7 c28 -4 87 -11 130
-17z m7390 10 l37 -10 0 -277 c0 -152 -3 -294 -6 -314 l-7 -38 -91 0 -91 0 6
232 c7 240 15 357 30 396 7 17 16 22 46 22 21 0 55 -5 76 -11z m-8544 -211
c16 -164 17 -786 2 -758 -9 16 -32 610 -30 795 0 132 13 115 28 -37z m5791
-303 l0 -85 -64 0 c-83 0 -94 -16 -16 -22 33 -2 63 -7 67 -11 4 -4 9 -111 11
-237 l5 -230 -55 0 c-31 0 -68 3 -84 6 l-29 5 3 260 3 259 -69 0 c-82 0 -132
-9 -132 -22 0 -7 33 -7 91 -3 l92 7 -5 -247 c-4 -197 -8 -249 -19 -256 -8 -5
-46 -9 -85 -9 -56 0 -73 3 -78 16 -3 9 -6 109 -7 222 -1 114 -4 232 -7 262
l-7 55 -55 3 c-66 4 -110 -3 -135 -22 -16 -11 -5 -13 78 -8 l97 5 0 -109 c0
-60 3 -180 7 -266 l6 -158 -102 0 -102 0 7 243 c6 226 6 243 -11 257 -23 19
-106 20 -129 1 -23 -19 -16 -22 25 -11 39 12 84 -2 94 -28 3 -9 3 -117 -1
-240 -7 -215 -8 -223 -28 -227 -59 -13 -126 -22 -131 -17 -3 3 -5 115 -5 250
l0 244 -252 -2 c-202 -3 -273 0 -353 14 -125 21 -502 35 -491 18 4 -7 31 -12
60 -12 31 0 58 -5 63 -12 18 -23 26 -72 32 -198 l6 -125 9 110 c6 71 5 128 -1
160 -6 28 -9 52 -6 55 7 7 212 3 231 -5 13 -5 14 -38 10 -266 -3 -143 -8 -262
-10 -264 -2 -3 -48 -2 -101 2 l-96 6 -15 41 c-8 23 -17 50 -20 61 -3 11 -3 -9
-1 -44 l5 -64 -46 7 c-26 3 -106 6 -179 6 l-133 0 -17 136 c-13 97 -16 164
-11 237 10 162 6 154 89 160 40 3 73 4 74 3 1 -1 7 -87 13 -192 10 -182 25
-322 36 -333 9 -10 25 24 20 44 -2 11 -11 38 -20 60 -12 31 -15 85 -16 243 l0
202 -105 0 c-57 0 -138 5 -179 11 -100 15 -130 2 -134 -58 l-3 -41 -27 14
c-16 8 -57 14 -99 14 l-71 0 -7 40 c-4 22 -15 50 -26 64 -37 47 -167 43 -218
-8 -30 -31 -14 -34 31 -6 36 22 109 27 152 10 17 -6 28 -21 35 -47 12 -43 15
-539 4 -546 -5 -3 -54 -8 -109 -12 l-102 -7 -6 38 c-3 22 -9 148 -12 281 -8
280 9 250 -146 260 -107 7 -155 -5 -166 -41 -4 -12 -5 -129 -2 -261 5 -254 11
-237 25 75 9 200 3 186 85 194 97 10 138 0 161 -38 17 -28 19 -52 19 -231 0
-110 4 -215 9 -232 9 -31 8 -33 -22 -37 -18 -3 -56 -7 -84 -9 l-53 -4 0 258
c0 166 -4 259 -10 259 -5 0 -11 -1 -12 -2 0 -2 -4 -120 -7 -263 l-6 -260 -175
1 -175 1 -6 209 c-6 219 -23 379 -41 401 -20 25 -138 10 -138 -18 0 -8 19 -9
65 -4 l65 7 0 -302 0 -301 -72 3 c-49 2 -73 7 -74 16 -1 6 -3 99 -4 205 l-3
192 -10 -100 c-5 -55 -10 -148 -11 -206 l-1 -106 -70 -7 c-38 -3 -85 -9 -104
-13 l-34 -6 6 74 c4 41 9 167 13 281 l6 207 31 10 c64 23 142 1 153 -44 3 -14
8 -24 11 -21 2 2 -1 23 -8 45 -11 36 -17 42 -53 52 -23 6 -64 9 -93 6 l-51 -5
-6 34 c-8 39 5 68 37 86 17 10 338 13 1572 15 853 1 1642 6 1755 11 113 5 247
9 298 10 l92 2 0 -85z m5214 -14 c26 -10 26 -12 26 -109 0 -119 -19 -582 -28
-695 -7 -77 -9 -82 -37 -99 -17 -9 -63 -20 -102 -24 l-72 -7 -8 29 c-11 40 -8
268 7 449 6 83 13 215 15 295 2 80 4 148 4 152 3 26 133 32 195 9z m-275 -50
c12 -8 16 -84 22 -438 4 -235 5 -431 1 -435 -4 -4 -51 -16 -105 -26 l-97 -19
0 22 c0 13 -10 132 -21 266 -12 134 -22 312 -23 396 -1 147 0 152 23 177 44
47 163 80 200 57z m-7088 -33 l36 -20 6 -226 c3 -125 3 -239 0 -254 l-5 -28
-98 0 c-93 0 -98 1 -104 23 -11 40 -6 181 9 297 27 200 31 222 46 231 18 12
65 2 110 -23z m791 -29 c69 -14 95 -32 107 -72 l9 -32 1 32 c1 44 25 55 132
61 l87 5 6 -44 c10 -91 28 -451 22 -457 -4 -3 -53 -6 -109 -6 l-102 -1 -2 40
c-2 22 -8 92 -15 155 l-13 115 -6 -75 c-4 -41 -7 -112 -8 -157 l-1 -83 -89 0
c-85 0 -89 1 -95 23 -3 13 -1 106 4 206 5 101 7 210 3 242 -7 66 -9 64 69 48z
m566 -251 l2 -235 -31 -7 c-17 -3 -55 -6 -85 -6 l-53 0 -5 43 c-12 83 -26 283
-26 359 l0 77 88 3 c48 2 92 3 97 3 6 -1 11 -90 13 -237z m5452 233 l25 -7 7
-259 c4 -143 13 -331 21 -418 11 -141 11 -159 -3 -167 -16 -8 -134 -30 -163
-30 -17 0 -43 75 -66 190 -14 67 -31 349 -31 526 l0 132 48 20 c47 20 115 26
162 13z m-7024 -7 c47 -13 56 -102 28 -309 -8 -65 -13 -129 -9 -142 5 -23 4
-23 -81 -23 l-87 0 5 228 c3 126 8 234 12 240 7 12 94 16 132 6z m6758 -56 c3
-13 14 -142 26 -288 12 -146 28 -319 35 -385 19 -159 19 -162 -6 -170 -23 -8
-242 -35 -246 -31 -13 12 -36 401 -37 616 l-1 265 85 6 c47 3 97 6 112 7 21 2
29 -3 32 -20z m-559 -190 c4 -90 8 -288 9 -440 l1 -278 -101 -4 -102 -5 -6 47
c-3 26 -9 219 -12 429 l-7 383 34 14 c19 9 65 15 105 16 l72 0 7 -162z m273
67 c9 -8 41 -407 48 -587 l7 -176 -79 -6 c-43 -3 -105 -8 -136 -11 l-57 -5 -6
53 c-3 28 -5 196 -3 372 l3 320 39 18 c66 31 164 43 184 22z m-532 -208 c1
-96 11 -259 23 -370 11 -108 21 -203 21 -211 0 -9 -29 -16 -101 -25 -56 -7
-107 -15 -115 -18 -12 -4 -14 27 -14 188 0 178 -11 407 -25 536 l-6 52 43 9
c24 6 72 10 108 11 l65 1 1 -173z m-3292 82 c15 -7 30 -24 34 -38 8 -29 9
-285 3 -544 l-4 -168 -66 3 -66 3 -22 150 c-40 278 -48 449 -27 584 l5 34 59
-6 c32 -4 70 -12 84 -18z m3025 2 c8 -5 11 -16 8 -25 -4 -9 0 -112 8 -229 17
-241 23 -452 14 -462 -8 -7 -178 -39 -183 -34 -4 4 -27 281 -41 496 -8 112 3
229 22 249 16 16 148 20 172 5z m-936 -27 c31 -12 40 -122 34 -422 -3 -156 -7
-285 -9 -287 -1 -1 -55 -5 -119 -7 l-117 -4 0 74 c0 41 -3 208 -7 370 l-8 295
105 -6 c58 -4 112 -9 121 -13z m-254 -49 c11 -30 15 -120 19 -357 l4 -318 -80
0 -80 0 5 43 c3 23 -7 174 -22 336 -21 224 -25 299 -16 318 10 23 15 24 83 21
l73 -3 14 -40z m-2674 -185 c408 -14 524 -22 542 -35 14 -11 16 -28 14 -106
-1 -58 -7 -97 -14 -101 -22 -14 -64 -8 -87 12 -18 16 -37 20 -94 20 -40 0 -95
-6 -124 -13 -56 -15 -62 -14 -62 15 0 11 -11 23 -27 29 -34 13 -194 5 -220
-11 -14 -8 11 -10 102 -8 l120 3 0 -95 c0 -52 -9 -170 -20 -262 l-19 -168 -91
0 c-49 0 -95 4 -102 8 -8 5 -12 82 -15 265 -2 213 -6 259 -18 267 -8 5 -44 11
-80 15 -36 3 -86 7 -112 10 -38 3 -50 0 -57 -13 -10 -19 -20 -522 -10 -522 18
0 23 53 26 260 2 124 6 231 8 239 4 11 22 13 88 8 123 -10 123 -10 131 -70 3
-29 6 -143 6 -254 l0 -203 -144 0 -144 0 5 148 c2 81 1 165 -4 187 l-9 40
-117 3 c-64 1 -125 -2 -136 -7 -14 -8 -19 -27 -24 -88 -4 -43 -14 -124 -23
-180 l-17 -103 -33 0 c-41 0 -40 -10 -19 195 9 83 15 188 13 235 l-3 85 -131
3 c-135 3 -198 -8 -176 -30 8 -8 21 -8 50 0 22 7 86 12 142 12 l103 0 -6 -82
c-4 -46 -12 -156 -18 -245 -11 -151 -13 -162 -33 -167 -12 -3 -85 -8 -163 -12
l-143 -7 -2 284 -3 284 -124 9 c-114 8 -125 7 -137 -9 -7 -10 -15 -22 -17 -28
-3 -10 -224 -37 -233 -28 -2 2 -4 15 -4 27 0 27 -23 36 -95 39 -27 2 -58 6
-68 10 -24 10 -185 0 -219 -14 l-28 -11 -1 -147 c-2 -157 -4 -160 -14 -22 -4
47 -10 90 -13 96 -8 12 -167 34 -187 27 -9 -4 -10 -15 -4 -42 5 -20 9 -52 9
-70 0 -54 18 -27 26 38 4 33 11 60 17 60 33 0 117 -26 122 -38 6 -16 22 -207
29 -349 l5 -102 -42 -5 c-23 -3 -72 -9 -109 -14 l-67 -8 -7 44 c-4 24 -3 115
1 203 l7 159 -59 2 c-92 2 -163 -7 -163 -21 0 -5 43 -6 95 -3 l95 5 0 -191 c0
-222 9 -205 -115 -200 l-70 3 0 105 c-1 58 -5 173 -9 257 l-9 152 -31 11 c-87
30 -196 21 -250 -21 -25 -20 -26 -24 -25 -122 1 -56 5 -142 9 -192 7 -79 8
-69 8 85 0 214 -3 195 27 208 30 14 203 16 224 3 22 -14 25 -100 11 -307 l-13
-192 -101 -12 c-56 -6 -117 -12 -136 -13 l-35 -2 -2 90 c-1 50 -7 137 -13 194
-6 58 -10 128 -9 155 3 45 0 52 -21 63 -66 34 -247 -7 -190 -42 6 -4 29 3 51
14 45 24 59 25 112 10 l37 -10 0 -239 0 -240 -44 0 c-23 0 -71 -3 -105 -6
l-61 -7 0 174 c0 199 -14 359 -33 371 -6 4 -30 8 -53 8 l-41 0 -6 65 c-7 71 4
118 26 110 7 -3 218 3 467 14 527 24 1251 50 1460 54 386 7 1042 6 1275 -3z
m-1839 -165 c4 -9 -2 -99 -11 -201 -10 -104 -15 -220 -12 -265 l5 -79 -94 0
-94 0 6 55 c10 78 10 392 1 442 l-7 42 42 9 c72 16 158 14 164 -3z m-1593 -6
l37 -10 0 -141 c0 -78 -7 -255 -15 -392 -8 -138 -16 -291 -18 -341 l-2 -90
-50 -17 c-27 -9 -66 -19 -86 -23 l-36 -7 -13 301 c-15 343 -8 646 15 691 8 16
20 30 27 33 23 9 102 7 141 -4z m1730 -6 c3 -5 8 -126 12 -270 l8 -263 -73 0
-72 0 6 208 c9 294 11 309 44 321 33 12 69 14 75 4z m515 1 c22 -6 22 -8 22
-184 0 -97 -3 -218 -6 -268 l-7 -92 -89 0 c-104 0 -98 -8 -124 147 -26 154 -6
366 37 394 16 10 132 12 167 3z m-3680 -39 c1 -1 9 -35 18 -76 12 -57 17 -190
24 -579 5 -292 14 -543 21 -595 7 -49 12 -99 13 -109 1 -17 -19 -24 -151 -56
-134 -32 -153 -35 -159 -21 -4 9 -11 320 -15 691 -5 371 -11 695 -15 718 l-6
44 133 -7 c74 -4 135 -9 137 -10z m3444 -219 c3 -115 9 -224 13 -243 l6 -33
-132 0 -131 0 4 225 c3 161 7 228 16 237 14 14 95 26 167 24 l50 -1 7 -209z
m-3150 192 c36 -29 55 -386 50 -940 -3 -318 -4 -328 -24 -339 -21 -11 -181
-60 -185 -56 -5 6 -35 381 -58 732 -14 215 -29 428 -34 475 -5 47 -7 88 -5 92
3 5 15 8 27 8 12 0 54 9 92 20 83 22 116 24 137 8z m5002 -4 c9 -8 17 -27 17
-42 2 -24 2 -24 6 -4 4 19 10 22 55 22 39 0 49 -3 45 -14 -3 -8 -9 -114 -13
-235 l-7 -221 -42 0 c-58 0 -67 13 -55 86 6 32 10 104 9 159 l-1 100 -19 -80
c-10 -44 -22 -117 -25 -162 l-7 -82 -41 -3 c-23 -2 -71 -2 -108 0 l-68 4 0
191 c0 106 5 208 10 229 10 36 12 36 78 47 146 24 148 24 166 5z m-4494 -19
c21 -25 26 -189 18 -515 -7 -259 -1 -493 14 -561 4 -13 -144 -60 -155 -49 -5
4 -13 214 -18 466 -5 253 -13 502 -19 554 -5 52 -8 96 -6 98 3 2 35 7 73 11
37 5 71 9 74 10 4 0 12 -6 19 -14z m934 -105 c3 -56 9 -175 13 -265 l6 -165
-73 0 -73 0 6 183 c6 162 17 277 33 330 4 12 16 17 43 17 l38 0 7 -100z
m-1134 -318 c8 -650 7 -714 -10 -722 -137 -66 -193 -90 -197 -86 -13 12 -22
230 -23 503 0 281 -11 499 -30 600 -9 52 -9 52 136 62 57 4 107 11 111 14 3 4
7 7 7 7 1 0 3 -170 6 -378z m602 59 c-3 -254 8 -509 23 -562 4 -10 -7 -21 -31
-33 -20 -9 -38 -16 -39 -14 -2 2 -5 207 -7 456 l-3 453 30 -3 30 -3 -3 -294z
m3243 267 c3 -3 1 -64 -6 -134 -7 -71 -12 -148 -13 -172 l0 -43 -106 3 c-104
3 -105 3 -118 31 -19 40 -6 291 16 314 13 12 35 14 118 11 57 -2 106 -6 109
-10z m-3404 -153 c9 -206 10 -672 3 -727 -6 -40 -11 -49 -44 -67 -21 -11 -40
-21 -44 -21 -3 0 -6 174 -6 388 0 213 -5 427 -10 475 -6 49 -8 93 -4 98 3 6
27 9 52 7 l47 -3 6 -150z m6761 -297 c20 -12 39 -30 43 -42 3 -12 9 -94 12
-183 7 -187 19 -169 -107 -153 -95 13 -116 31 -113 98 8 239 15 281 50 301 22
13 67 5 115 -21z m2963 -70 c-3 -51 -15 -307 -25 -568 -37 -897 -62 -1465 -65
-1468 -2 -2 -12 1 -23 7 -11 6 -59 17 -108 26 -48 8 -88 16 -89 18 0 1 2 369
6 817 7 852 14 997 56 1165 l18 70 80 11 c44 6 97 12 118 13 l38 1 -6 -92z
m-286 73 c12 -8 11 -24 -3 -112 -30 -190 -37 -338 -47 -1044 -5 -385 -13 -729
-17 -765 -6 -58 -10 -66 -35 -78 -15 -8 -52 -16 -82 -19 -46 -5 -60 -2 -97 20
-24 14 -56 38 -71 55 -27 28 -28 31 -18 93 21 136 50 462 71 804 6 94 19 319
31 500 11 182 24 371 29 420 5 50 10 100 10 113 0 21 3 22 108 22 59 0 113 -4
121 -9z m-4705 -19 c6 -9 24 -189 28 -272 l2 -55 -74 -12 c-41 -6 -91 -12
-110 -12 l-35 -1 -2 58 c-7 175 -6 198 10 234 13 31 24 39 64 52 54 16 109 20
117 8z m519 -17 c26 -9 47 -20 47 -23 0 -4 -7 -70 -15 -147 -8 -77 -15 -143
-15 -147 0 -10 -186 -9 -220 1 -25 7 -25 8 -32 161 -4 85 -5 161 -3 169 7 19
172 9 238 -14z m1300 -15 c6 -8 27 -313 21 -319 -9 -9 -232 -12 -238 -3 -2 4
-8 82 -12 173 l-7 164 116 -5 c63 -3 117 -7 120 -10z m-2350 -6 l157 -6 0 -49
0 -48 -99 6 c-61 4 -100 2 -104 -4 -4 -6 28 -13 86 -17 51 -4 95 -10 100 -15
4 -4 10 -50 14 -103 l6 -96 -64 -6 c-35 -4 -89 -7 -119 -9 l-55 -2 -3 116 -3
117 -112 9 c-62 4 -114 7 -117 5 -3 -2 4 -10 14 -18 14 -10 48 -14 108 -14
l88 0 0 -110 0 -110 -104 0 c-79 0 -105 3 -109 14 -3 8 -9 61 -13 119 -3 58
-10 111 -15 118 -6 10 -60 14 -213 17 -207 5 -262 0 -250 -19 4 -7 35 -9 93
-4 l86 7 -3 -279 c-2 -153 -5 -284 -7 -291 -4 -10 -28 -12 -100 -10 l-95 3 -2
170 c-2 199 2 363 8 386 6 23 -38 49 -95 56 -40 4 -59 1 -104 -21 -44 -20 -72
-26 -129 -27 -79 0 -139 -16 -146 -38 -3 -10 0 -12 14 -7 36 14 117 26 174 26
l57 0 7 -48 c3 -26 6 -150 6 -274 l-1 -226 -23 -6 c-13 -3 -54 -2 -92 3 -38 4
-86 6 -106 3 -21 -2 -38 0 -38 4 0 5 -5 54 -10 109 -6 55 -10 177 -11 272 -1
198 8 182 -111 190 -57 4 -95 1 -147 -12 -60 -16 -78 -17 -121 -7 -69 16 -115
15 -129 -2 -8 -9 -8 -16 -2 -20 5 -4 12 -2 16 4 9 15 52 12 120 -8 l60 -18 6
-160 c5 -149 17 -214 42 -239 6 -7 7 -2 2 15 -5 14 -9 109 -11 212 -2 160 0
189 13 200 18 14 168 18 217 5 l29 -8 -6 -121 c-4 -67 -7 -190 -7 -275 l0
-154 -142 8 c-79 4 -184 8 -234 8 l-91 0 -7 195 c-8 231 -23 382 -39 392 -26
16 -145 30 -187 23 -65 -12 -293 -8 -382 6 -43 6 -85 8 -95 4 -10 -4 -66 -8
-125 -9 -59 0 -111 -5 -117 -11 -7 -7 22 -10 85 -10 91 0 97 -1 119 -27 21
-25 23 -39 30 -200 3 -95 5 -216 3 -268 l-3 -95 -125 0 -125 0 0 155 c0 85 2
212 5 282 4 93 2 130 -7 139 -20 20 -26 5 -31 -73 l-4 -73 -72 -2 c-41 0 -89
-8 -111 -17 -22 -9 -66 -19 -100 -23 -68 -7 -102 -20 -88 -34 6 -6 20 -6 37 1
15 5 49 10 76 10 61 0 61 -2 59 -211 -2 -153 -3 -159 -23 -160 -34 -1 -151 2
-153 5 -1 1 -7 116 -14 256 -7 168 -15 258 -23 262 -6 4 -47 8 -91 8 l-81 0 4
-40 c5 -52 22 -63 22 -14 l0 37 66 -6 c36 -2 67 -6 68 -8 2 -2 7 -115 11 -251
l7 -248 -79 0 -80 0 -7 53 c-3 28 -6 127 -6 220 l0 167 -27 11 c-15 5 -66 9
-113 7 l-85 -3 -3 78 -3 77 43 0 c41 0 186 11 593 46 105 9 262 22 350 29 126
11 410 13 1325 9 641 -2 1236 -7 1323 -10z m3571 -61 c3 -43 8 -117 12 -165
l6 -86 -95 -7 c-144 -11 -137 -18 -137 134 0 70 5 142 11 159 11 33 14 34 155
40 l42 2 6 -77z m-1832 -88 c4 -71 9 -139 10 -150 4 -25 -41 -34 -170 -34
-136 -1 -132 -7 -132 154 l0 134 53 10 c28 5 61 12 72 15 11 2 52 3 90 3 l70
-2 7 -130z m-349 58 c22 -95 37 -183 37 -209 0 -30 -42 -34 -192 -21 l-118 10
-6 35 c-7 38 1 227 11 242 4 6 61 10 130 10 l123 0 15 -67z m-3826 2 c69 -21
75 -39 80 -245 2 -91 4 -207 6 -258 l2 -92 -82 0 -83 0 0 163 c-1 89 -5 221
-10 292 -7 114 -6 132 8 143 20 15 18 15 79 -3z m300 -34 l28 -7 5 -231 c3
-127 8 -234 12 -238 3 -4 12 3 18 16 10 17 10 52 0 158 -17 185 -12 254 23
289 24 23 36 27 85 27 83 -1 92 -7 92 -57 0 -24 9 -131 20 -238 20 -188 19
-263 -2 -276 -10 -7 -449 -6 -455 0 -6 6 -21 225 -28 410 l-7 169 90 -7 c50
-4 103 -11 119 -15z m1273 4 c10 -12 11 -49 6 -153 -3 -75 -9 -199 -13 -274
l-6 -138 -73 0 -74 0 0 188 c0 103 -3 230 -6 283 -8 111 -13 106 92 108 44 1
65 -3 74 -14z m494 -1 c13 -5 16 -23 16 -103 0 -53 3 -105 6 -117 5 -18 0 -22
-36 -28 -87 -14 -101 -35 -126 -191 -9 -61 -20 -113 -23 -117 -3 -3 -18 -4
-33 -1 l-28 5 0 286 0 285 104 -6 c57 -4 111 -9 120 -13z m4199 4 c15 -12 15
-18 2 -68 -8 -30 -15 -72 -15 -92 0 -36 -2 -38 -32 -39 -57 -3 -99 2 -131 16
-30 12 -32 18 -44 91 -6 43 -10 80 -8 82 21 21 202 29 228 10z m220 -61 c10
-11 16 -25 14 -31 -2 -6 -10 -34 -17 -62 l-13 -50 -84 0 -85 1 6 62 c9 87 11
91 69 101 63 11 86 7 110 -21z m315 -2 c7 -6 1 -416 -8 -640 -13 -291 -26
-468 -51 -668 -10 -86 -19 -159 -19 -161 0 -13 -103 11 -142 33 l-48 26 7 100
c9 118 10 446 3 932 -3 193 -2 355 2 359 20 19 107 32 178 27 41 -3 76 -7 78
-8z m122 -35 c19 -5 65 -12 103 -15 39 -4 67 -12 67 -19 0 -6 -5 -40 -10 -76
-17 -119 -29 -290 -45 -620 -17 -359 -37 -598 -63 -735 l-17 -90 -42 -3 c-56
-4 -154 14 -172 33 -13 13 -13 17 1 32 14 15 20 70 33 298 22 389 53 886 65
1034 6 68 10 137 10 154 0 24 3 28 18 22 9 -4 33 -11 52 -15z m348 -35 c64 0
82 -3 82 -14 0 -8 -11 -143 -25 -300 -40 -463 -55 -709 -62 -1004 l-6 -279
-24 -9 c-30 -11 -106 5 -158 34 l-40 23 1 234 c1 243 8 358 50 810 13 146 27
322 31 392 l6 127 31 -7 c17 -4 68 -7 114 -7z m-8255 -45 c12 -45 3 -326 -12
-362 -10 -28 -11 -28 -106 -28 l-95 0 0 215 0 216 102 -3 102 -3 9 -35z m590
3 c16 -4 17 -20 15 -201 l-3 -197 -86 -3 -86 -3 -6 38 c-10 66 -20 319 -13
346 5 20 14 27 39 30 33 4 109 -1 140 -10z m5567 -163 c432 -11 881 -20 998
-20 l212 0 0 -704 0 -704 -92 -7 c-51 -4 -118 -5 -148 -3 l-55 3 -9 160 c-10
171 6 738 24 875 19 139 20 130 -30 156 -111 58 -284 78 -584 71 -206 -5 -298
-14 -387 -38 -33 -8 -37 -13 -43 -50 -22 -136 -37 -424 -43 -788 l-6 -414
-155 7 c-86 3 -157 8 -159 10 -2 2 -12 48 -23 102 -25 128 -37 327 -45 699 -3
165 -11 319 -17 343 -10 39 -13 43 -37 37 -58 -13 -846 -9 -974 4 -83 9 -132
10 -138 4 -6 -6 -6 -115 1 -311 11 -321 3 -544 -25 -708 -23 -132 -18 -124
-83 -123 -73 1 -210 13 -215 19 -2 3 2 73 9 155 7 83 16 281 20 440 7 303 -1
426 -31 502 -16 40 -17 40 -78 46 -178 17 -612 29 -744 20 -79 -5 -145 -12
-148 -15 -4 -3 -13 -44 -22 -89 -19 -100 -23 -443 -9 -826 l9 -252 -34 -5
c-19 -3 -60 -8 -93 -11 l-58 -5 6 32 c16 94 17 239 1 508 -20 331 -16 576 10
711 9 47 20 91 24 98 10 15 83 25 321 45 673 56 1371 63 2850 26z m661 -245
c70 -9 149 -21 175 -28 l49 -12 3 -53 c2 -29 -4 -112 -12 -185 -8 -73 -18
-175 -22 -227 l-6 -95 -458 -4 -457 -4 -6 169 c-3 93 -2 225 3 294 10 137 13
145 79 156 20 3 41 7 46 10 25 10 492 -6 606 -21z m-2739 -60 c7 -42 11 -355
4 -355 -2 0 -28 16 -57 35 -30 19 -57 35 -61 35 -20 0 -4 17 26 28 18 7 41 21
51 31 17 20 12 46 -9 38 -51 -19 -53 -19 -60 21 -7 49 -39 81 -61 62 -8 -7
-20 -30 -27 -51 l-11 -39 -35 41 c-27 31 -40 39 -61 37 -38 -4 -37 -31 2 -75
l35 -38 -36 3 c-24 2 -48 -4 -70 -18 -39 -24 -49 -45 -31 -66 13 -16 66 -15
125 2 22 6 22 5 -2 -43 -29 -58 -24 -83 16 -83 33 0 80 41 80 70 0 19 2 19 41
-7 27 -18 58 -28 96 -31 l56 -5 -7 -206 c-3 -113 -9 -267 -13 -343 l-6 -136
-221 5 c-121 3 -223 7 -225 9 -2 2 19 38 46 81 55 85 52 84 196 109 105 18
111 26 44 61 -31 15 -111 14 -151 -2 -16 -7 -17 -5 -11 16 21 67 23 69 64 69
58 0 85 16 135 80 l45 57 -52 25 c-29 14 -58 23 -65 20 -8 -2 -27 -25 -43 -50
-35 -56 -35 -54 -4 38 29 86 29 86 11 93 -10 4 -23 -20 -47 -81 l-34 -87 -5
60 c-3 33 -14 75 -23 93 -16 29 -89 92 -108 92 -15 0 -43 -95 -43 -147 0 -63
20 -95 87 -138 l47 -30 -5 -50 c-9 -75 -21 -75 -38 0 -9 37 -24 76 -34 87 -32
36 -173 91 -173 67 0 -27 34 -137 55 -179 27 -52 83 -107 120 -116 31 -8 31
-13 -1 -77 -50 -100 -42 -97 -249 -97 l-181 0 0 153 c0 83 -2 287 -4 452 -4
261 -2 312 13 389 23 112 29 124 70 129 17 2 203 4 412 3 l380 -1 7 -40z
m1256 -16 l194 -12 10 -26 c11 -28 5 -374 -7 -403 -6 -14 -14 -11 -62 23 -31
21 -67 39 -80 39 -35 0 -61 -33 -80 -101 -16 -57 -18 -60 -42 -55 -14 4 -51 9
-82 12 -104 12 -171 -46 -173 -150 l0 -51 -66 35 c-58 31 -73 35 -141 35 -64
0 -81 -4 -112 -25 -80 -53 -147 -191 -150 -307 -2 -61 -8 -75 -23 -51 -17 27
-22 209 -14 453 6 143 10 333 10 422 l1 162 32 6 c99 16 480 14 785 -6z
m-5678 -371 c0 -337 -9 -499 -30 -578 -8 -31 -20 -42 -85 -78 -41 -23 -79 -42
-83 -42 -13 0 -31 90 -42 205 -11 119 -12 286 -3 572 l6 211 101 30 c56 17
109 31 119 31 16 1 17 -22 17 -351z m-325 230 c20 -88 28 -212 34 -558 8 -468
15 -437 -110 -519 -43 -28 -81 -51 -84 -51 -3 0 -5 69 -5 153 0 83 -9 292 -20
462 -11 171 -20 347 -20 392 l0 81 88 30 c107 37 110 37 117 10z m-255 -80 c0
-13 9 -160 20 -328 34 -531 38 -760 11 -760 -4 0 -11 156 -14 348 -6 314 -14
475 -33 690 -4 50 -3 72 5 72 6 0 11 -10 11 -22z m-76 -170 c3 -90 11 -325 16
-523 6 -198 13 -385 16 -415 5 -51 3 -59 -28 -105 -32 -49 -69 -74 -168 -114
-19 -8 -38 -16 -42 -19 -5 -2 -8 36 -8 85 0 49 -9 217 -21 373 -12 161 -21
398 -22 545 l-2 260 110 37 c61 21 117 38 126 38 15 0 18 -21 23 -162z m-310
-130 c4 -112 16 -365 26 -563 23 -410 24 -524 9 -578 -21 -76 -130 -163 -211
-169 l-33 -3 -2 60 c-6 162 -26 475 -44 700 -32 409 -48 649 -43 655 5 5 271
97 285 99 3 1 9 -90 13 -201z m-385 -5 c36 -251 76 -742 90 -1128 10 -264 11
-258 -77 -311 -46 -28 -170 -74 -199 -74 -12 0 -42 121 -67 270 -24 143 -44
400 -56 715 -6 165 -15 344 -21 399 -6 54 -7 101 -4 105 8 8 285 99 306 100
13 1 19 -15 28 -76z m8491 -149 c24 -5 34 -16 49 -50 16 -34 28 -47 60 -60 55
-22 95 -69 81 -95 -14 -25 -47 -45 -88 -54 -22 -5 -34 -14 -38 -30 -3 -13 -15
-32 -26 -42 -19 -17 -21 -17 -59 5 l-39 23 -68 -20 c-60 -18 -72 -26 -100 -66
-19 -27 -39 -45 -51 -45 -18 0 -64 45 -73 70 -2 6 -22 7 -63 0 -33 -5 -89 -10
-125 -10 -184 1 -232 67 -111 152 38 26 75 42 130 53 153 33 149 31 175 84 28
55 54 75 117 90 42 10 167 7 229 -5z m-3990 -150 l0 -34 -1506 0 -1505 0 3 33
3 32 315 -3 c173 -2 598 -7 944 -13 600 -9 1338 0 1626 20 58 4 108 5 113 3 4
-2 7 -19 7 -38z m-2570 -82 c0 -5 -96 -202 -212 -438 l-213 -429 -6 180 c-10
237 -12 615 -5 622 5 5 371 67 424 72 6 0 12 -3 12 -7z m2570 -57 c0 -5 9
-116 20 -245 20 -240 26 -446 12 -467 -6 -9 -83 -9 -337 -1 -182 5 -459 8
-618 4 l-287 -5 6 27 c18 80 43 172 111 412 41 145 76 267 79 269 15 15 134
19 546 18 304 -1 468 -6 468 -12z m2110 -256 c736 -24 1936 -30 2180 -12 152
12 170 8 170 -38 0 -41 -44 -84 -101 -100 -52 -14 -643 -8 -1710 17 -757 18
-1869 15 -2232 -6 l-209 -12 -34 33 c-49 47 -46 80 9 120 l42 31 610 -5 c336
-3 909 -16 1275 -28z m1607 -244 l842 0 5 -70 c4 -59 27 -1493 26 -1682 l0
-61 -62 -4 c-35 -2 -67 0 -73 4 -6 6 -10 180 -11 481 -1 354 -5 516 -18 647
-19 203 -44 362 -58 371 -58 36 -580 46 -782 15 -197 -30 -209 -34 -225 -81
-23 -67 -25 -314 -5 -560 18 -227 24 -669 10 -777 l-7 -57 -126 -3 c-104 -2
-127 0 -131 12 -9 22 -8 183 2 625 11 516 -4 690 -65 760 -80 90 -224 95 -679
20 -273 -45 -398 -58 -486 -53 -41 3 -74 2 -74 -1 0 -3 7 -45 14 -92 42 -253
50 -372 51 -704 0 -266 -4 -353 -18 -448 -10 -64 -20 -124 -24 -133 -5 -13
-21 -15 -117 -9 -61 4 -112 8 -113 10 -13 10 -53 933 -53 1206 l0 169 -122 0
c-68 0 -215 -5 -328 -10 -113 -6 -323 -11 -467 -12 l-263 -2 0 -664 0 -664
-107 7 c-60 4 -109 8 -110 9 -2 1 3 40 9 87 9 57 13 293 14 749 1 826 2 881
14 900 16 26 185 28 1465 22 677 -4 1609 -7 2072 -7z m-4997 -305 c0 -6 -57
-236 -126 -513 l-126 -503 -406 4 c-360 4 -883 -7 -1209 -26 -62 -4 -113 -4
-113 0 0 14 121 185 169 239 l50 57 16 113 c9 63 19 224 22 361 l6 246 101 6
c347 21 1616 33 1616 16z m5623 -310 c-1 -140 -9 -367 -17 -505 -9 -137 -19
-340 -23 -451 l-6 -201 -163 -23 c-141 -19 -192 -22 -361 -17 -109 2 -226 10
-260 17 l-62 12 7 31 c4 18 7 131 6 252 0 170 -6 279 -28 480 -23 216 -27 289
-23 430 2 94 8 178 12 187 4 11 24 19 61 24 90 11 414 21 644 20 l215 -1 -2
-255z m-1405 191 c23 -5 44 -10 46 -12 2 -2 0 -125 -5 -274 -4 -148 -11 -453
-15 -676 l-7 -406 -236 -9 c-289 -11 -673 -12 -723 -1 -35 7 -39 11 -57 70
-39 127 -42 184 -39 714 l3 512 85 6 c66 5 420 52 580 78 48 8 325 6 368 -2z
m-2018 -62 c211 -31 412 -31 493 -3 32 12 59 18 61 15 15 -25 20 -224 21 -716
l0 -570 -180 0 c-99 -1 -319 -3 -490 -5 -170 -3 -322 -2 -336 2 l-26 8 -7 187
c-3 104 -11 249 -16 323 -32 452 -37 605 -24 703 6 43 9 47 48 61 22 8 50 17
61 20 38 10 241 -3 395 -25z m-1007 -885 l157 -7 0 -191 c0 -325 -24 -663 -66
-923 l-17 -103 -90 0 c-49 0 -342 -6 -651 -14 -308 -8 -681 -17 -828 -20
l-268 -5 0 21 c0 57 178 793 257 1058 25 85 47 163 50 172 3 9 17 19 32 22 35
6 1222 -2 1424 -10z m1167 -534 c305 -5 953 -12 1440 -15 1200 -8 2000 -22
2033 -34 36 -14 34 -40 -4 -77 l-30 -29 -617 2 c-339 1 -795 6 -1012 13 -623
17 -2150 24 -2468 11 l-273 -11 -24 27 c-33 37 -40 67 -24 105 l13 31 205 -7
c113 -3 456 -11 761 -16z"/>
<path d="M6190 11483 c-914 -23 -1536 -142 -1858 -357 -37 -24 -80 -58 -96
-75 -26 -27 -28 -35 -24 -80 10 -97 100 -184 283 -271 161 -77 334 -130 581
-179 398 -79 1239 -110 1904 -70 798 47 1393 174 1549 330 75 75 86 127 50
225 -52 138 -199 231 -484 305 -216 56 -459 88 -1005 134 -168 14 -341 30
-385 35 -73 9 -238 10 -515 3z m560 -63 c431 -12 655 -36 1008 -106 383 -77
573 -158 598 -258 21 -85 -128 -170 -420 -240 l-29 -7 27 31 c17 21 26 43 26
66 0 203 -381 358 -1080 440 -181 21 -781 31 -962 15 -398 -35 -604 -95 -733
-213 -116 -106 -125 -197 -29 -277 l37 -30 -27 -7 c-75 -18 -358 51 -472 116
-59 34 -111 88 -120 125 -9 38 14 83 63 120 118 90 493 185 843 215 69 5 141
12 160 14 78 7 797 5 1110 -4z m165 -140 c244 -17 337 -36 570 -117 425 -149
495 -267 235 -398 -345 -174 -961 -258 -1435 -196 -282 37 -664 124 -791 180
-24 11 -81 48 -126 82 -172 129 -206 181 -158 241 28 36 146 95 234 118 304
77 1008 121 1471 90z"/>
<path d="M3523 7630 c-26 -11 -43 -26 -43 -36 0 -16 2 -15 21 1 16 15 36 19
96 20 l77 0 15 -39 c13 -34 13 -55 2 -160 -21 -192 -24 -256 -13 -256 15 0 26
131 27 308 0 141 -2 155 -19 168 -28 20 -113 17 -163 -6z"/>
<path d="M9480 5343 c-11 -15 -36 -37 -55 -50 -45 -30 -65 -70 -65 -128 0 -37
3 -45 18 -45 11 0 27 9 37 20 25 28 50 25 75 -10 43 -60 55 -21 18 55 l-23 46
21 57 c29 81 16 108 -26 55z"/>
<path d="M9708 5324 c-15 -8 -41 -34 -58 -58 -34 -50 -41 -78 -12 -54 48 43
92 24 92 -40 0 -47 11 -34 45 54 22 58 25 75 16 93 -14 24 -44 27 -83 5z"/>
<path d="M9937 5324 c-11 -12 -8 -110 5 -139 15 -33 53 -33 116 0 47 24 82 49
82 56 0 2 -25 5 -55 6 -60 1 -115 28 -131 63 -5 12 -13 18 -17 14z"/>
<path d="M6506 5383 c-23 -153 -59 -596 -54 -676 l3 -59 92 199 c84 182 95
200 130 220 30 17 47 38 77 100 36 75 43 82 146 158 92 68 105 81 86 87 -11 3
-123 6 -248 7 l-226 1 -6 -37z"/>
<path d="M8146 5271 c-21 -17 -46 -33 -57 -36 -36 -12 -66 -104 -39 -120 6 -4
26 3 46 16 l35 21 30 -28 c21 -20 32 -25 40 -17 9 9 6 19 -10 41 -26 36 -26
61 -4 101 28 47 6 59 -41 22z"/>
<path d="M7826 5274 c-11 -28 -6 -104 8 -139 20 -47 56 -64 91 -41 14 9 31 28
37 41 10 21 7 28 -21 54 -17 16 -31 33 -31 39 0 15 -48 62 -63 62 -8 0 -18 -7
-21 -16z"/>
<path d="M8454 5246 c-17 -8 -51 -17 -75 -21 -58 -10 -79 -22 -79 -45 0 -32
28 -50 79 -50 59 0 75 12 99 78 22 57 21 57 -24 38z"/>
<path d="M10191 3458 c-6 -16 -15 -39 -21 -53 -8 -21 -16 -25 -53 -25 -35 0
-53 7 -88 35 -24 19 -46 31 -50 27 -3 -4 -16 -76 -27 -161 -15 -106 -28 -163
-42 -185 -13 -22 -49 -48 -111 -82 -113 -61 -176 -126 -209 -215 -13 -35 -23
-77 -23 -93 1 -44 58 -186 94 -235 16 -23 27 -46 24 -52 -4 -5 -33 -23 -65
-39 -64 -32 -89 -62 -71 -84 16 -19 91 -3 180 39 l73 35 161 -10 c88 -6 162
-8 165 -6 2 3 5 22 6 43 1 32 -2 38 -21 41 -22 3 -23 7 -23 122 0 118 0 120
37 190 32 62 37 80 37 138 0 62 -12 102 -60 207 -2 6 20 25 50 43 92 55 122
104 94 155 -7 12 -19 60 -29 107 -15 79 -17 83 -28 58z"/>
<path d="M8431 3373 c-34 -18 -44 -30 -55 -66 -3 -10 -33 -34 -68 -55 -34 -20
-83 -57 -110 -81 -52 -47 -118 -147 -118 -177 0 -21 74 -162 121 -232 30 -45
30 -45 11 -71 -10 -14 -47 -48 -83 -74 -129 -96 -129 -97 -129 -126 0 -48 54
-88 143 -105 20 -4 37 -9 37 -11 0 -3 -14 -34 -32 -70 -22 -44 -29 -68 -22
-75 27 -27 161 -44 344 -44 195 -1 261 11 268 47 2 9 -11 37 -28 62 -58 84
-22 114 100 81 54 -14 55 -14 77 9 53 58 85 218 54 273 -11 21 -17 23 -51 17
-22 -4 -49 -4 -61 0 -18 6 -21 13 -16 45 3 21 24 70 47 109 40 67 42 75 36
122 -15 115 -106 286 -184 347 -64 50 -101 65 -222 88 -14 3 -40 -3 -59 -13z
m86 -263 c6 0 28 20 49 45 l37 46 23 -22 c53 -50 95 -243 75 -339 -15 -70 -56
-150 -108 -211 -41 -48 -43 -54 -43 -114 0 -83 -8 -88 -120 -68 -47 8 -85 15
-86 16 -1 1 2 27 7 57 7 47 6 57 -10 75 -41 45 -55 88 -59 185 -4 104 14 186
39 184 8 -1 38 -6 67 -11 29 -6 55 -7 58 -2 8 14 -58 49 -93 49 -24 0 -33 5
-33 16 0 23 29 130 47 176 l16 40 61 -61 c34 -34 67 -61 73 -61z"/>
<path d="M8577 2969 c-21 -5 -47 -13 -57 -19 -30 -16 -51 -88 -48 -160 l3 -65
23 50 c32 69 49 85 91 85 49 0 83 19 94 53 16 48 -31 73 -106 56z"/>
<path d="M8326 2898 c11 -37 25 -48 60 -48 49 0 50 16 1 44 -55 33 -71 33 -61
4z"/>
<path d="M6876 3339 c-14 -11 -26 -27 -26 -35 0 -23 -14 -16 -32 16 -19 33
-32 36 -75 19 -21 -8 -46 -8 -95 2 -63 11 -70 11 -89 -7 -29 -26 -49 -75 -49
-123 0 -41 16 -65 49 -76 10 -3 31 -24 46 -46 23 -36 30 -40 53 -34 15 3 53 9
85 12 52 5 59 9 74 37 9 17 19 45 23 61 l7 30 11 -26 c27 -66 91 -110 140 -95
10 4 28 23 40 44 12 20 22 31 22 25 0 -7 9 -22 20 -33 30 -30 94 -27 126 5 29
29 34 30 34 11 0 -37 86 -60 132 -35 26 14 48 68 48 119 0 55 -42 100 -92 100
-40 0 -62 -14 -82 -54 -14 -27 -16 -28 -22 -10 -9 26 -45 64 -59 64 -19 0 -65
-40 -85 -73 l-18 -29 -7 43 c-11 62 -59 109 -113 109 -25 0 -49 -8 -66 -21z
m-100 -93 c3 -8 1 -23 -5 -34 -12 -23 -98 -82 -118 -82 -23 0 -27 31 -8 66 27
51 117 85 131 50z"/>
<path d="M7115 3023 c-22 -2 -107 -13 -190 -24 -104 -14 -187 -20 -270 -17
l-120 3 -8 -55 c-13 -93 6 -451 34 -621 l10 -66 67 -7 c104 -9 427 -7 527 4
103 12 176 33 198 58 12 14 16 70 21 307 4 160 9 308 12 331 6 39 5 41 -33 57
-41 19 -142 38 -183 35 -14 -1 -43 -3 -65 -5z m-101 -235 c3 -57 8 -142 12
-190 l5 -88 -30 0 c-31 0 -31 0 -31 54 0 30 -4 58 -10 61 -6 4 -10 60 -10 136
l0 129 29 0 30 0 5 -102z m127 82 c-24 -21 -41 -19 -41 6 0 9 11 14 33 14 l32
-1 -24 -19z m-480 -125 c3 -49 12 -104 19 -122 11 -26 11 -34 1 -47 -23 -27
-31 -7 -31 77 0 45 -6 107 -13 137 -15 63 -11 95 7 64 6 -10 14 -59 17 -109z
m210 -176 c7 -14 8 -24 1 -31 -26 -26 -32 7 -31 170 l2 167 8 -142 c5 -79 13
-152 20 -164z m389 233 c0 -16 -25 -32 -49 -32 l-26 1 24 19 c24 20 51 27 51
12z m31 -132 c10 -6 19 -20 19 -31 0 -11 5 -29 11 -40 5 -11 9 -30 6 -42 -3
-21 -4 -21 -12 -2 -4 11 -22 35 -38 53 -28 29 -36 32 -88 32 -58 0 -84 14 -58
31 19 12 136 11 160 -1z m-93 -136 c12 -8 22 -22 22 -31 0 -9 7 -25 17 -35 15
-17 14 -18 -40 -18 l-57 0 0 43 c0 61 15 71 58 41z"/>
<path d="M9245 7261 c3 -6 39 -11 81 -11 70 0 76 -2 105 -31 l30 -31 -3 -297
c-2 -197 1 -302 8 -314 7 -13 9 75 6 312 l-5 331 55 0 c30 0 69 -5 87 -11 l31
-11 0 -329 c0 -299 5 -363 24 -313 8 21 8 255 -1 482 l-6 180 -41 11 c-107 30
-385 53 -371 32z"/>
<path d="M6561 1607 c-31 -81 -80 -355 -81 -448 0 -59 24 -97 54 -86 18 7 53
157 61 262 3 44 8 95 11 114 l5 33 137 -7 c85 -4 262 0 466 9 267 13 331 14
338 4 8 -11 5 -195 -5 -357 -2 -30 3 -37 31 -54 27 -16 38 -18 58 -9 l24 12 0
223 c0 123 3 245 6 270 l7 46 -249 -2 c-137 -1 -385 2 -551 6 l-303 9 -9 -25z"/>
<path d="M9190 1549 c-296 -13 -653 -38 -661 -46 -16 -16 -38 -130 -41 -213
-4 -141 1 -320 11 -320 4 0 22 32 40 70 22 50 31 86 31 123 0 28 9 88 20 132
11 44 20 97 20 118 0 21 5 37 11 37 7 0 149 14 318 31 237 25 357 32 531 33
237 1 410 -15 435 -41 8 -7 28 -57 45 -111 24 -75 30 -106 25 -137 -14 -81
-11 -184 7 -201 41 -41 80 30 79 141 0 38 -5 138 -10 220 -6 83 -11 156 -11
163 0 14 -516 15 -850 1z"/>
</g>
</svg>
